<svg xmlns="http://www.w3.org/2000/svg" width="1200" height="630" viewBox="0 0 1200 630"><defs><linearGradient id="bg" x1="0" y1="0" x2="1" y2="1"><stop stop-color="#13202d"/><stop offset="1" stop-color="#30475e"/></linearGradient><linearGradient id="desk" x1="0" y1="0" x2="1" y2="0"><stop stop-color="#d7c4a7"/><stop offset="1" stop-color="#a88d6c"/></linearGradient><filter id="shadow"><feDropShadow dx="0" dy="8" stdDeviation="10" flood-opacity=".25"/></filter></defs><rect width="1200" height="630" fill="url(#bg)"/><rect y="390" width="1200" height="240" fill="url(#desk)"/><circle cx="1040" cy="105" r="190" fill="#fff" opacity=".05"/><g filter="url(#shadow)"><rect x="650" y="180" width="390" height="280" rx="18" fill="#f8f4ec"/><path d="M710 390 L775 330 L835 350 L900 250 L980 205" fill="none" stroke="#b54b3e" stroke-width="14" stroke-linecap="round" stroke-linejoin="round"/><path d="M955 205h25v25" fill="none" stroke="#b54b3e" stroke-width="14" stroke-linecap="round"/></g><g opacity=".95"><rect x="735" y="430" width="190" height="90" rx="12" fill="#486b45" transform="rotate(-6 735 430)"/><circle cx="830" cy="470" r="25" fill="#d7e1c8"/><rect x="850" y="455" width="175" height="82" rx="12" fill="#557b51" transform="rotate(5 850 455)"/></g><g fill="#f2b84b"><circle cx="1000" cy="495" r="32"/><circle cx="1045" cy="510" r="32"/><circle cx="1085" cy="486" r="32"/></g><text x="78" y="135" fill="#f2b84b" font-family="Arial, sans-serif" font-size="30" font-weight="700" letter-spacing="3">GUIA DO BOLSO</text><text x="78" y="225" fill="#fff" font-family="Arial, sans-serif" font-size="58" font-weight="700">Inflação e IPCA</text><text x="78" y="292" fill="#fff" font-family="Arial, sans-serif" font-size="34">Como a alta dos preços</text><text x="78" y="337" fill="#fff" font-family="Arial, sans-serif" font-size="34">afeta seu poder de compra</text><rect x="78" y="375" width="390" height="5" rx="2" fill="#f2b84b"/><text x="78" y="438" fill="#e7edf2" font-family="Arial, sans-serif" font-size="24">Economia • Educação financeira</text></svg>