<svg xmlns="http://www.w3.org/2000/svg" width="1200" height="630" viewBox="0 0 1200 630"><defs><linearGradient id="bg" x1="0" y1="0" x2="1" y2="1"><stop stop-color="#10243d"/><stop offset="1" stop-color="#24736b"/></linearGradient></defs><rect width="1200" height="630" fill="url(#bg)"/><circle cx="970" cy="110" r="220" fill="#fff" opacity=".06"/><circle cx="1080" cy="540" r="310" fill="#fff" opacity=".04"/><g transform="translate(730 165)"><rect x="0" y="0" width="330" height="280" rx="24" fill="#f6f2e8"/><rect x="38" y="48" width="180" height="18" rx="9" fill="#b8b5aa"/><rect x="38" y="88" width="250" height="14" rx="7" fill="#d0cdc4"/><rect x="38" y="122" width="220" height="14" rx="7" fill="#d0cdc4"/><path d="M55 210 C110 160 145 245 205 185 S285 180 295 145" fill="none" stroke="#24736b" stroke-width="12" stroke-linecap="round"/><circle cx="55" cy="210" r="10" fill="#24736b"/><circle cx="295" cy="145" r="10" fill="#24736b"/></g><text x="90" y="175" font-family="Arial,sans-serif" font-size="28" fill="#bfe6dc" font-weight="700">GUIA DO BOLSO</text><text x="90" y="250" font-family="Arial,sans-serif" font-size="58" fill="#fff" font-weight="700">Renegociação</text><text x="90" y="318" font-family="Arial,sans-serif" font-size="58" fill="#fff" font-weight="700">de dívidas</text><text x="90" y="382" font-family="Arial,sans-serif" font-size="27" fill="#dce8e6">Como comparar propostas e evitar</text><text x="90" y="420" font-family="Arial,sans-serif" font-size="27" fill="#dce8e6">trocar uma dívida por outra pior</text></svg>